<?xml version="1.0" encoding="utf-8"?>
<!-- Generator: Adobe Illustrator 16.0.0, SVG Export Plug-In . SVG Version: 6.00 Build 0)  -->
<!DOCTYPE svg PUBLIC "-//W3C//DTD SVG 1.1//EN" "http://www.w3.org/Graphics/SVG/1.1/DTD/svg11.dtd">
<svg version="1.1" id="Layer_1" xmlns="http://www.w3.org/2000/svg" xmlns:xlink="http://www.w3.org/1999/xlink" x="0px" y="0px"
	 width="453.54px" height="226.9px" viewBox="0 0 453.54 226.9" enable-background="new 0 0 453.54 226.9" xml:space="preserve">
<g>
	<linearGradient id="SVGID_1_" gradientUnits="userSpaceOnUse" x1="366.5586" y1="202.3691" x2="406.3911" y2="133.3772">
		<stop  offset="0" style="stop-color:#83BE41"/>
		<stop  offset="0.1759" style="stop-color:#7FBC41"/>
		<stop  offset="0.3556" style="stop-color:#73B440"/>
		<stop  offset="0.5371" style="stop-color:#5EA840"/>
		<stop  offset="0.7199" style="stop-color:#41973E"/>
		<stop  offset="0.902" style="stop-color:#1D823D"/>
		<stop  offset="1" style="stop-color:#06743C"/>
	</linearGradient>
	<path fill="url(#SVGID_1_)" d="M410.027,118.123l-6.89-6.853l-2.896-3.048c0.15,0.301,2.854,10.717-4.946,20.188l-26.323,27.998
		c-15.929,15.928-18.679,36.25-18.679,44.125c-0.047,0.75-0.065,1.549-0.075,2.365v0.225c0.019,6.701,1.488,15.244,2.36,17.711
		l1.93,6.064l55.537-56.43c7.848-7.828,11.729-18.66,10.668-29.707C419.897,132.238,416.109,124.213,410.027,118.123z"/>
	<linearGradient id="SVGID_2_" gradientUnits="userSpaceOnUse" x1="431.9385" y1="97.0586" x2="350.5648" y2="50.0775">
		<stop  offset="0" style="stop-color:#83BE41"/>
		<stop  offset="0.1759" style="stop-color:#7FBC41"/>
		<stop  offset="0.3556" style="stop-color:#73B440"/>
		<stop  offset="0.5371" style="stop-color:#5EA840"/>
		<stop  offset="0.7199" style="stop-color:#41973E"/>
		<stop  offset="0.902" style="stop-color:#1D823D"/>
		<stop  offset="1" style="stop-color:#06743C"/>
	</linearGradient>
	<path fill="url(#SVGID_2_)" d="M442.687,87.889L353.992,0.002l-1.211,5.93c-0.056,0.265-4.383,16.412,1.343,36.491
		c4.604,16.214,17.749,31.096,17.749,31.096l54.843,55.042c9.26,9.273,6.627,20.967,6.481,21.277h0.032l2.413-2.684l7.058-6.928
		c6.068-6.072,9.855-14.098,10.668-22.621c0.112-1.145,0.169-2.289,0.174-3.416v-0.31
		C453.495,104.163,449.655,94.847,442.687,87.889z"/>
	<g>
		<defs>
			<rect id="SVGID_3_" x="-0.002" y="0.002" width="453.544" height="226.896"/>
		</defs>
		<clipPath id="SVGID_4_">
			<use xlink:href="#SVGID_3_"  overflow="visible"/>
		</clipPath>
		<path clip-path="url(#SVGID_4_)" fill="#FFFFFF" d="M183.728,149.631c0,4.77-4.233,8.551-9.583,8.551h-9.588V79.775
			c0-5.219,4.041-9.4,9.217-9.588l9.954,0.017V149.631z"/>
		<path clip-path="url(#SVGID_4_)" fill="#FFFFFF" d="M237.435,85.613l-27.722,28.586v0.01l27.722,28.57
			c3.727,3.717,3.778,9.547,0.207,13.348l-0.305,0.262c-3.797,3.529-9.588,3.436-13.287-0.252l-39.746-41.91l39.746-41.956
			c3.698-3.696,9.49-3.79,13.287-0.263l0.305,0.263C241.213,76.063,241.161,81.903,237.435,85.613"/>
		<path clip-path="url(#SVGID_4_)" fill="#FFFFFF" d="M294.615,66.477c-25.544,0-46.245,20.708-46.245,46.248
			c0,25.541,20.701,46.246,46.245,46.246c25.54,0,46.246-20.705,46.246-46.246C340.861,87.186,320.155,66.477,294.615,66.477
			 M294.615,141.738c-16.026,0-29.013-12.99-29.013-29.013c0-16.024,12.986-29.015,29.013-29.015
			c16.022,0,29.018,12.99,29.018,29.015C323.633,128.748,310.638,141.738,294.615,141.738"/>
		<path clip-path="url(#SVGID_4_)" fill="#FFFFFF" d="M183.728,149.631c0,4.77-4.233,8.551-9.583,8.551h-9.588V79.775
			c0-5.219,4.041-9.4,9.217-9.588l9.954,0.017V149.631z"/>
		<path clip-path="url(#SVGID_4_)" fill="#FFFFFF" d="M237.435,85.613l-27.722,28.586v0.01l27.722,28.57
			c3.727,3.717,3.778,9.547,0.207,13.348l-0.305,0.262c-3.797,3.529-9.588,3.436-13.287-0.252l-39.746-41.91l39.746-41.956
			c3.698-3.696,9.49-3.79,13.287-0.263l0.305,0.263C241.213,76.063,241.161,81.903,237.435,85.613"/>
		<path clip-path="url(#SVGID_4_)" fill="#FFFFFF" d="M148.135,140.584h-44.631V70.192h-9.968c-5.266,0.152-9.391,4.376-9.391,9.68
			v78.31h55.186c4.824,0,8.804-3.781,8.804-8.568V140.584z"/>
		<path clip-path="url(#SVGID_4_)" fill="#FFFFFF" d="M19.23,140.584h48.526v9.047c0,4.777-3.895,8.551-8.677,8.551H0.003
			l-0.005-78.31c0-5.407,4.275-9.68,9.682-9.68h58.077v8.67c0,4.78-3.895,8.548-8.677,8.548H19.23v17.85h33.565
			c4.778,0,8.673,3.895,8.673,8.675c0,4.769-3.895,8.55-8.673,8.55H19.23V140.584z"/>
		<path clip-path="url(#SVGID_4_)" fill="#FFFFFF" d="M294.615,66.477c-25.544,0-46.245,20.708-46.245,46.248
			c0,25.541,20.701,46.246,46.245,46.246c25.54,0,46.246-20.705,46.246-46.246C340.861,87.186,320.155,66.477,294.615,66.477
			 M294.615,141.738c-16.026,0-29.013-12.99-29.013-29.013c0-16.024,12.986-29.015,29.013-29.015
			c16.022,0,29.018,12.99,29.018,29.015C323.633,128.748,310.638,141.738,294.615,141.738"/>
	</g>
</g>
</svg>
