<svg xmlns="http://www.w3.org/2000/svg" viewBox="0 0 457.92 92.85"><defs><style>.cls-1{fill:#fff;}.cls-2{opacity:0.1;}.cls-3{fill:#e4e4e6;}</style></defs><title>heimkaup-logo</title><g id="Layer_2" data-name="Layer 2"><g id="Layer_1-2" data-name="Layer 1"><g id="Heimkaup_2.0" data-name="Heimkaup 2.0"><path class="cls-1" d="M84.77,7.44l-2-.92V8.05H56.39a1.51,1.51,0,0,1,.11.56V39.75a.14.14,0,0,1-.25.1L54.48,38a.29.29,0,0,0-.43,0l-1.8,1.87a.3.3,0,0,1-.43,0L50,38a.29.29,0,0,0-.43,0L47.78,39.9a.3.3,0,0,1-.43,0L45.55,38a.29.29,0,0,0-.43,0l-2,2v.06l0,0,0,0v-.06l-2-2a.29.29,0,0,0-.43,0l-1.8,1.87a.31.31,0,0,1-.44,0L36.67,38a.29.29,0,0,0-.43,0l-1.8,1.87a.3.3,0,0,1-.43,0L32.2,38a.29.29,0,0,0-.43,0L30,39.85a.15.15,0,0,1-.26-.1V8.61a1.55,1.55,0,0,1,.11-.56H3.27V6.52l-2,.92a2.25,2.25,0,0,0-1.3,2V91.35a1.5,1.5,0,0,0,1.5,1.5h28a.29.29,0,0,0,.29-.3V61.39a.15.15,0,0,1,.26-.11l1.76,1.84a.29.29,0,0,0,.43,0L34,61.24a.3.3,0,0,1,.43,0l1.8,1.88a.29.29,0,0,0,.43,0l1.8-1.88a.31.31,0,0,1,.44,0l1.8,1.88a.29.29,0,0,0,.43,0l2-2V61l0,0,0,0v.06l2,2a.29.29,0,0,0,.43,0l1.8-1.88a.3.3,0,0,1,.43,0l1.81,1.88a.29.29,0,0,0,.43,0l1.8-1.88a.3.3,0,0,1,.43,0l1.8,1.88a.3.3,0,0,0,.44,0l1.76-1.84a.15.15,0,0,1,.25.11V92.55a.3.3,0,0,0,.3.3H84.57a1.5,1.5,0,0,0,1.5-1.5V9.48A2.25,2.25,0,0,0,84.77,7.44Z"/><path class="cls-2" d="M50.8,0H35.43L28.07,6.91h0l-.76.71a1.46,1.46,0,0,0-.32.43H59.37Z"/><path class="cls-3" d="M84.54,7.33,70,.56A6,6,0,0,0,67.47,0h-18l6.68,7.62a1.45,1.45,0,0,1,.26.43h28A.38.38,0,0,0,84.54,7.33Z"/><path class="cls-3" d="M29.88,8a1.41,1.41,0,0,1,.25-.4L36.81,0H18.59a5.94,5.94,0,0,0-2.52.56L1.53,7.33a.38.38,0,0,0,.16.72H29.87Z"/><path class="cls-1" d="M166.43,70h-9.38V53H139.68V70h-9.76V27.46h9.76v17h17.37v-17h9.38Z"/><path class="cls-1" d="M205.74,52.45h-20v9.92H209V70H176.64V27.46h32.3V35H185.77v9.48h20Z"/><path class="cls-1" d="M227.68,70h-9.36V27.46h9.36Z"/><path class="cls-1" d="M249.27,27.46,260,45l10.67-17.54h11.06V70h-9.25V42.53L260,60.09,247.8,42.53l0,27.45h-9.36V27.46Z"/><path class="cls-1" d="M306.52,51.92,300.88,58V70h-8.65V27.46h8.65V46.27l18-18.81h10.63L312.18,45.33,330.43,70H320.15Z"/><path class="cls-1" d="M363.28,60.69l-17,0L342.88,70H332.4l17.8-43.21h9.12L377.22,70H366.74Zm-13.89-8.37,10.84.09-5.47-14.72Z"/><path class="cls-1" d="M415.82,28V55.66a13.35,13.35,0,0,1-4.88,10.89q-4.89,4-13.34,4t-13.22-3.89a13.17,13.17,0,0,1-5-10.69V28h9.79v27.7c0,2.74.75,4.75,2.24,6a9.33,9.33,0,0,0,6.18,1.88q8.26,0,8.39-7.66V28Z"/><path class="cls-1" d="M433.09,56.75V70H424V28h17.3A20,20,0,0,1,450,29.85,13.47,13.47,0,0,1,455.87,35a14.51,14.51,0,0,1,2.05,7.66A12.74,12.74,0,0,1,453.45,53Q449,56.74,441.1,56.75Zm0-7.4h8.16a8,8,0,0,0,5.53-1.71,6.2,6.2,0,0,0,1.91-4.87,7.3,7.3,0,0,0-1.92-5.27,7.17,7.17,0,0,0-5.3-2.07h-8.38Z"/></g></g></g></svg>