<?xml version="1.0" encoding="utf-8"?>
<!-- Generator: Adobe Illustrator 21.1.0, SVG Export Plug-In . SVG Version: 6.00 Build 0)  -->
<svg version="1.1" id="Layer_1" xmlns="http://www.w3.org/2000/svg" xmlns:xlink="http://www.w3.org/1999/xlink" x="0px" y="0px"
	 viewBox="0 0 215 47" style="enable-background:new 0 0 215 47;" xml:space="preserve">
<style type="text/css">
	.st0{fill:#03522F;}
	.st1{fill:#FFFFFF;}
	.st2{fill:#007EBF;}
	.st3{fill:none;}
</style>
<path class="st0" d="M92.7,40.4c1.4-0.8,2.5-2.2,3-3.8l7.4-22.3c0.8-2.4,3.1-4.1,5.7-4.1h98.6c1.5,0,2.9,0.5,4,1.4
	c1.4,1.1,2.2,2.8,2.2,4.6l0,18.1c0,3.4-2.7,6.1-6.1,6.1H92.7z"/>
<g>
	<path class="st1" d="M120.6,29.5c1.1-0.1,1.2-0.1,1.2-0.9v-7.2c0-0.8-0.1-0.8-1.2-0.9v-0.5h7.5v2.5h-0.5c-0.3-1.4-0.6-1.9-2.2-1.9
		h-1.2c-0.4,0-0.5,0.1-0.5,0.5v3.3h1.6c1,0,1.2-0.3,1.3-1.3h0.5v3.2h-0.5c-0.2-1-0.3-1.3-1.3-1.3h-1.6v3.1c0,0.6,0.1,0.9,0.4,1
		c0.3,0.1,0.7,0.1,1.4,0.1c1.7,0,2.1-0.6,2.6-2.2h0.5l-0.2,2.8h-7.8V29.5z"/>
	<path class="st1" d="M148.5,29.5V30h-3.7v-0.5l0.4,0c0.4,0,0.5-0.1,0.5-0.7v-3.5c0-1-0.5-1.5-1.2-1.5c-0.6,0-1.1,0.4-1.3,1
		c-0.1,0.2-0.1,0.4-0.1,0.7v3.3c0,0.5,0.1,0.6,0.5,0.7l0.4,0V30h-3.6v-0.5l0.4,0c0.4,0,0.5-0.1,0.5-0.7v-3.5c0-0.8-0.3-1.5-1.2-1.5
		c-0.7,0-1.2,0.4-1.4,1c-0.1,0.2-0.1,0.4-0.1,0.7v3.3c0,0.5,0.1,0.6,0.5,0.7l0.4,0V30h-3.7v-0.5c0.9,0,1-0.1,1-0.7v-4.3
		c0-0.5,0-0.8-0.4-0.9c-0.1,0-0.3-0.1-0.5,0.2c-0.1,0.1-0.3,0.3-0.4,0.7c-0.7,1.7-1.7,4.3-2.6,6.6c-0.8,2.1-1.4,2.5-2.3,2.5
		c-0.6,0-1.1-0.4-1.1-0.9c0-0.5,0.4-1,0.8-1c0.2,0,0.3,0.1,0.6,0.3c0.2,0.2,0.4,0.2,0.5,0.2c0.3,0,0.4-0.3,0.6-0.7
		c0.1-0.3,0.1-0.6,0.1-0.8c0-0.2,0-0.3-0.1-0.5c-0.6-1.6-1.6-4.1-2.4-6c-0.2-0.4-0.3-0.6-0.6-0.6l-0.5-0.1V23h3.7v0.5l-0.6,0.1
		c-0.3,0-0.3,0.2-0.2,0.5c0.5,1.4,1,2.8,1.5,4.3h0c0.5-1.4,1.1-3.1,1.4-4.3c0.1-0.3,0-0.4-0.2-0.5l-0.6-0.1V23h3.6l1.1-0.2l0.2,1
		c0.7-0.4,1.4-1,2.4-1c1.1,0,1.6,0.5,1.9,1.1c0.6-0.4,1.4-1.1,2.5-1.1c1.5,0,2.2,0.8,2.2,2.2v3.7C147.5,29.4,147.6,29.5,148.5,29.5"
		/>
	<path class="st1" d="M153.7,29.2c-0.5,0.3-1.3,1-2.6,1c-1,0-2.1-0.5-2.1-2.1v-3.6c0-0.5-0.1-0.6-0.4-0.7l-0.5-0.1v-0.5l2.7-0.4
		l0.1,0.1v4.7c0,1.1,0.5,1.6,1.3,1.6c0.7,0,1.2-0.4,1.4-0.8c0.1-0.2,0.1-0.5,0.1-0.8v-3.1c0-0.5-0.1-0.6-0.4-0.7l-0.5-0.1v-0.5
		l2.7-0.4l0.1,0.1v5.9c0,0.6,0.1,0.7,1,0.7V30h-2.7L153.7,29.2z"/>
	<path class="st1" d="M156.8,29.5c0.9,0,1-0.1,1-0.7v-4.3c0-0.5-0.1-0.6-0.4-0.7l-0.5-0.1v-0.5l2.6-0.4l0.2,1c0.9-0.6,1.6-1,2.5-1
		c1.4,0,2.1,0.8,2.1,2.2v3.7c0,0.6,0.1,0.7,1,0.7V30h-3.7v-0.5l0.4,0c0.4,0,0.5-0.1,0.5-0.7v-3.5c0-1-0.5-1.5-1.3-1.5
		c-0.7,0-1.1,0.4-1.4,0.8c-0.1,0.2-0.1,0.5-0.1,0.8v3.4c0,0.5,0.1,0.6,0.5,0.7l0.4,0V30h-3.7V29.5z"/>
	<path class="st1" d="M170.4,25c0-0.3,0-0.6-0.1-0.8c-0.2-0.4-0.6-0.7-1.2-0.7c-1,0-1.8,1-1.8,3c0,1.8,0.6,2.8,1.7,2.8
		c0.7,0,1.1-0.3,1.3-0.8c0.1-0.2,0.1-0.4,0.1-0.6V25z M170.4,29.3c-0.8,0.6-1.5,0.9-2.1,0.9c-1.8,0-2.9-1.4-2.9-3.5
		c0-1.3,0.4-2.2,1.1-2.9c0.6-0.6,1.5-0.9,2.7-0.9c0.5,0,0.9,0.1,1.3,0.2v-2c0-0.6-0.1-0.7-0.4-0.7l-0.5-0.1v-0.5l2.7-0.4l0.1,0.1
		v9.3c0,0.6,0.1,0.7,1,0.7V30h-2.8l0-0.1V29.3z"/>
	<path class="st1" d="M177.9,25.2c-0.2-1-0.8-1.7-1.6-1.7c-0.6,0-1.1,0.4-1.1,0.9c0,0.7,0.7,1,1.5,1.2c1.4,0.5,2.1,1.1,2.1,2.3
		c0,1.4-1.1,2.2-2.8,2.2c-0.8,0-1.8-0.2-2.4-0.7l-0.2-2.1h0.5c0.3,1.2,1.1,2.1,2.1,2.1c0.7,0,1.1-0.4,1.1-1c0-0.8-0.8-1.2-1.4-1.4
		c-1.2-0.4-2.2-1-2.2-2.2c0-1.4,1.1-2.2,2.7-2.2c0.7,0,1.5,0.1,2,0.5v1.8H177.9z"/>
	<path class="st1" d="M183.9,25.2c-0.2-1-0.8-1.7-1.6-1.7c-0.6,0-1.1,0.4-1.1,0.9c0,0.7,0.7,1,1.5,1.2c1.4,0.5,2.1,1.1,2.1,2.3
		c0,1.4-1.1,2.2-2.8,2.2c-0.8,0-1.8-0.2-2.4-0.7l-0.2-2.1h0.5c0.3,1.2,1.1,2.1,2.1,2.1c0.7,0,1.1-0.4,1.1-1c0-0.8-0.8-1.2-1.4-1.4
		c-1.2-0.4-2.2-1-2.2-2.2c0-1.4,1.1-2.2,2.7-2.2c0.7,0,1.5,0.1,2,0.5v1.8H183.9z"/>
	<path class="st1" d="M190.5,26.5c0-1.9-0.5-3.1-1.6-3.1c-1.1,0-1.6,1.1-1.6,3.1c0,1.9,0.5,3.1,1.6,3.1
		C190,29.6,190.5,28.5,190.5,26.5 M185.3,26.5c0-2.3,1.1-3.7,3.6-3.7c2.5,0,3.6,1.4,3.6,3.7c0,2.3-1.1,3.7-3.6,3.7
		C186.4,30.2,185.3,28.8,185.3,26.5"/>
	<path class="st1" d="M192.7,29.5c0.9,0,1-0.1,1-0.7v-4.3c0-0.5-0.1-0.6-0.4-0.7l-0.5-0.1v-0.5l2.6-0.4l0.2,1c0.9-0.6,1.6-1,2.5-1
		c1.4,0,2.1,0.8,2.1,2.2v3.7c0,0.6,0.1,0.7,1,0.7V30h-3.7v-0.5l0.4,0c0.4,0,0.5-0.1,0.5-0.7v-3.5c0-1-0.5-1.5-1.3-1.5
		c-0.7,0-1.1,0.4-1.4,0.8c-0.1,0.2-0.1,0.5-0.1,0.8v3.4c0,0.5,0.1,0.6,0.5,0.7l0.4,0V30h-3.7V29.5z"/>
</g>
<path class="st2" d="M7.6,36.8c-1.5,0-2.9-0.5-4-1.4c-1.4-1.1-2.2-2.8-2.2-4.6l0-18.1c0-3.4,2.7-6.1,6.1-6.1h108.2
	c-1.4,0.8-2.5,2.2-3,3.8l-7.4,22.3c-0.8,2.4-3.1,4.1-5.7,4.1H7.6z"/>
<path class="st3" d="M108.8,9.7h3.6c0.4-1,1-1.9,1.8-2.6H7.5c-3.1,0-5.6,2.5-5.6,5.6l0,18.1c0,1.6,0.7,3.1,2,4.2
	c1,0.8,2.3,1.3,3.7,1.3h87.7l7.3-22.1C103.5,11.5,106,9.7,108.8,9.7z"/>
<path class="st3" d="M104.8,32.5l7.2-21.8h-3.3c-2.4,0-4.4,1.5-5.2,3.7l-7.2,21.8h3.3C102,36.3,104.1,34.8,104.8,32.5z"/>
<path class="st3" d="M99.6,37.3H96c-0.4,1-1,1.9-1.8,2.6h113.3c3.1,0,5.6-2.5,5.6-5.6l0-18.1c0-1.6-0.7-3.1-2-4.2
	c-1-0.8-2.3-1.3-3.7-1.3h-94.3l-7.3,22.1C104.9,35.5,102.4,37.3,99.6,37.3z"/>
<path class="st1" d="M211.7,11.2c-1.2-1-2.8-1.5-4.3-1.5h-93.9c1.1-2.2,3.3-3.6,5.8-3.6h-4.6H7.5c-3.6,0-6.6,2.9-6.6,6.6l0,18.1
	c0,1.9,0.8,3.7,2.3,5c1.2,1,2.8,1.5,4.3,1.5h87.3c-1.1,2.2-3.3,3.6-5.8,3.6h4.6h113.8c3.6,0,6.6-2.9,6.6-6.6l0-18.1
	C214.1,14.3,213.2,12.5,211.7,11.2z M7.6,36.3c-1.4,0-2.7-0.4-3.7-1.3c-1.3-1.1-2-2.6-2-4.2l0-18.1c0-3.1,2.5-5.6,5.6-5.6h106.7
	c-0.8,0.7-1.4,1.6-1.8,2.6c-0.1,0.2-0.1,0.3-0.2,0.5l-0.2,0.5l-7.2,21.8c-0.7,2.2-2.8,3.7-5.2,3.7h-3.3h-1.1H7.6z M213.1,34.3
	c0,3.1-2.5,5.6-5.6,5.6H94.2c0.8-0.7,1.4-1.6,1.8-2.6h3.6c2.8,0,5.3-1.8,6.1-4.4l7.3-22.1h94.3c1.4,0,2.7,0.4,3.7,1.3
	c1.3,1.1,2,2.6,2,4.2L213.1,34.3z"/>
<path class="st2" d="M19.8,30.3c-3-0.1-6.1-4.6-6.1-8.7c0-4.2,3.1-8.6,6-8.7l56,0c0.8,0,2,0.5,2.4,1.3c1.7,2.9,5.7,4.4,11.7,4.6
	l5.6,0v5.5l-5.6,0c-6.1,0.1-10,1.7-11.7,4.6c-0.4,0.8-1.6,1.3-2.4,1.3h0L19.8,30.3z"/>
<path class="st1" d="M60,27.3v-0.9v-4.3v-1c0-0.2,0-0.3,0-0.5c0.3-0.5,0.5-1.2,0.5-1.9c0-0.8-0.3-1.6-0.8-2.2
	c2.8-1.6,5.6,0.1,6.6,2.4c0.2,0.6,0.4,1.2,0.4,1.8v2.8v3.7H63v-4.5c0-0.3-0.2-0.6-0.5-0.6c-0.3,0-0.5,0.3-0.5,0.6v4.5H60z"/>
<path class="st1" d="M67.7,27.3v-0.9v-4.3v-1c0-1.1-0.2-2.4-1-3.5c-0.1-0.1-0.2-0.2-0.2-0.3c0.1-0.1,0.2-0.1,0.2-0.2
	c3-2.4,6.3-0.7,7.3,1.9c0.2,0.6,0.4,1.2,0.4,1.8v2.8v3.7h-3.7v-4.5c0-0.3-0.2-0.6-0.5-0.6c-0.3,0-0.5,0.3-0.5,0.6v4.5H67.7z"/>
<path class="st1" d="M30.6,16.7c0.8-0.5,1.8-0.8,2.8-0.8c3.1,0,5.6,2.6,5.7,5.7h-4.7c-0.3,0-0.6,0.2-0.6,0.5c0,0.3,0.3,0.5,0.6,0.5
	H39c-0.5,2.7-2.8,4.8-5.6,4.8c-1.4,0-2.7-0.5-3.7-1.4c0.4-0.2,0.8-0.5,1.2-0.9c0,0,0.2-0.2,0.2-0.2c0.4-0.5,0.7-1,1-1.6
	c0.6-1.5,0.6-3.2,0-4.7C31.7,17.9,31.2,17.2,30.6,16.7"/>
<path class="st1" d="M27.2,22c0.2-0.2,0.4-0.4,0.4-0.8c0-0.6-0.4-0.9-0.8-1l-0.3,0H25V21v1.1h1.7C26.8,22.1,27,22.1,27.2,22
	 M26.6,26H25v1.4h-1.5h-2.4v-2v-4.2v-4.2v-0.9h3.1h2.4c2.3,0,3.8,1.3,4.5,2.9c0.6,1.3,0.6,2.9,0,4.2c-0.2,0.5-0.5,1-0.9,1.4L30,24.7
	C29.2,25.5,28.1,26,26.6,26"/>
<path class="st1" d="M46.1,19.4c0.1,0.4,0.2,0.8,0.2,1.2v0.9v4.3v1.5l-3.7,0v-4.5c0-0.3-0.2-0.6-0.5-0.6c-0.3,0-0.5,0.3-0.5,0.6v4.5
	l-4.9,0c0.1,0,0.2-0.1,0.2-0.1c0.3-0.1,2.6-1.4,3.1-4.5c0.3-1.6,0-3.4-1.1-4.9l-0.1-0.2c-0.1-0.2-0.2-0.3-0.4-0.5
	c0.1-0.1,0.2-0.2,0.4-0.3c0.3-0.2,0.5-0.4,0.8-0.5c0.2-0.1,0.3-0.2,0.5-0.3c1.5-0.6,2.9-0.3,4,0.5C45.1,17.3,45.8,18.3,46.1,19.4"/>
<path class="st1" d="M55.1,22.3c0.4,0.1,0.8,0.2,1.3,0.2c1,0,1.9-0.3,2.6-0.8v5.6h-3.9v-3.2V22.3z"/>
<path class="st1" d="M54,17.2c0.5-0.8,1.4-1.3,2.5-1.3c1.6,0,3,1.2,3,2.8s-1.4,2.8-3,2.8c-0.5,0-1-0.1-1.4-0.3v-0.6
	c0-0.8-0.2-1.5-0.5-2.3C54.5,17.9,54.3,17.5,54,17.2"/>
<path class="st1" d="M47.4,27.3v-0.9v-4.3v-1c0-1.1-0.2-2.4-1-3.5c-0.1-0.1-0.2-0.2-0.2-0.3c0.1-0.1,0.2-0.1,0.2-0.2
	c3-2.4,6.3-0.7,7.3,1.9c0.2,0.6,0.4,1.2,0.4,1.8v2.8v3.7h-3.7v-4.5c0-0.3-0.2-0.6-0.5-0.6c-0.3,0-0.5,0.3-0.5,0.6v4.5H47.4z"/>
<path class="st1" d="M95.1,18.6h-4.7l-0.6,0c-5.9-0.1-9.8-1.6-11.4-4.4c-0.5-0.9-1.7-1.5-2.7-1.5l0,0h0l-56,0h0l0,0
	c-3.1,0.1-6.4,4.6-6.4,9c0,4.4,3.3,8.9,6.4,9l0,0h0l55.9,0h0l0,0c0.9,0,2.1-0.6,2.7-1.5c1.7-2.8,5.5-4.3,11.5-4.4l0.5,0h4.7h0.7
	v-0.7v-4.9v-0.7H95.1z M90.4,24.1l-0.5,0c-3.9,0.1-9.7,0.8-12,4.7c-0.4,0.7-1.3,1.1-2.1,1.2l-55.9,0C17,29.9,14,25.6,14,21.7
	c0-3.9,2.9-8.3,5.7-8.4l56,0c0.8,0,1.8,0.5,2.1,1.2c2.3,3.9,8.1,4.7,12,4.7l0.6,0h4.7v2.1H79.3c-0.1-0.5-0.6-0.9-1.2-0.9
	c-0.7,0-1.3,0.6-1.3,1.3c0,0.7,0.6,1.3,1.3,1.3c0.6,0,1.1-0.4,1.2-0.9h15.8v2.1H90.4z"/>
</svg>
