<svg xmlns="http://www.w3.org/2000/svg" viewBox="0 0 308.27 125.38"><defs><style>.cls-1{fill:#153b8a;stroke:#fff;stroke-width:1.68px;}.cls-2{fill:#fff;}</style></defs><g id="Layer_2" data-name="Layer 2"><g id="Layer_1-2" data-name="Layer 1"><rect class="cls-1" x="0.84" y="0.84" width="306.59" height="123.7"/><path class="cls-2" d="M26,24.08c1.71,1.64,2.21,3.89,1.13,5s-3.36.72-5.07-.93-2.21-3.89-1.13-5S24.28,22.43,26,24.08Z"/><path class="cls-2" d="M22.5,21.67a3,3,0,0,0-2.18.9,3.06,3.06,0,0,0-.81,2.21,6,6,0,0,0,2,4c2.08,2,4.82,2.39,6.25.9a3,3,0,0,0,.81-2.14,5.88,5.88,0,0,0-2-4.06A6,6,0,0,0,22.5,21.67Zm.13,5.9a4.38,4.38,0,0,1-1.44-2.82,1.25,1.25,0,0,1,1.34-1.4,4.44,4.44,0,0,1,2.88,1.34h0c1.46,1.41,1.76,3.15,1.1,3.83S24,28.84,22.63,27.57Z"/><path class="cls-2" d="M32.17,123.83c.1-.91.17-1.84.22-2.77.55-11.31-3.51-25.34-11.84-36.56C12.09,73.09,6.73,64.82,6.73,57.91a11,11,0,0,1,8.64-11c3.59-.8,13-.8,16.48-3.72a13.7,13.7,0,0,0,4.92-12c-.4-5.05-1.63-16.11-18.74-16.88A26.7,26.7,0,0,0,1.46,19.76V10.83a38.78,38.78,0,0,1,17.22-4c14.1,0,20.61,9,20.61,9a73.11,73.11,0,0,1,14.22,8,80.12,80.12,0,0,1,11,10.1c.4.67,1.46,3.19-2.13,4.39A64.17,64.17,0,0,1,44.35,40.9S39.56,49.4,32,52.06s-16.37.11-16.75,7c-.27,4.78,4,10.5,5.58,12.76S39.56,92.21,39.56,120c0,1.28-.05,2.56-.17,3.84Zm12.63-90s4.12.53,7.57.66,2.93-1.46,2.93-1.46c-1.6-1.33-11-6.64-11-6.64C42.93,29.86,44.8,33.85,44.8,33.85Z"/><path class="cls-2" d="M71.75,25.81H87.14c7.91,0,14.61,3.35,14.61,12.18,0,5.31-2,7.54-6.79,9.12v.28a9,9,0,0,1,2.14,2.09l7.62,11.39H90L84.45,49.62h-.24V60.87H71.75ZM84.21,41.34h.89c2.09,0,4.18-.32,4.18-2.93s-1.9-3-4.09-3h-1Z"/><path class="cls-2" d="M135.5,25.81V46.55c0,10.23-6.41,14.88-16.22,14.88s-16.23-4.65-16.23-14.88V25.81h12.74V45.34c0,2.74.09,5.16,3.49,5.16s3.48-2.42,3.48-5.16V25.81Zm-10.23-7.07-7.67,6.7-4.23-2.88,6.09-7.68Z"/><path class="cls-2" d="M140.71,25.81h13.11l4.84,18.42H159a37.77,37.77,0,0,1,.88-4.65l3.95-13.77h13l5.77,35.06H170.24l-1.72-19.2h-.23a31.67,31.67,0,0,1-.84,3.49l-5.07,15.71h-7.44L150.38,46a18.62,18.62,0,0,1-.79-4.37h-.42c-.09,1.39-.18,2.83-.32,4.23l-1.49,15H135Z"/><path class="cls-2" d="M184.05,25.81h23.48V35.86H196.88v3.62h9.35V48.6h-9.35V60.87H184.05Z"/><path class="cls-2" d="M216.78,60.87H203.3l12.18-35.06h14.09l12.51,35.06H228.6l-1.17-4.37h-9.62Zm8.42-12.69L223.71,42c-.37-1.48-.6-3-.83-4.51h-.47l-2.32,10.7Z"/><path class="cls-2" d="M236.73,25.81h26.79V37.2l-7-.32v24H243.75v-24l-7,.32Z"/><path class="cls-2" d="M271.61,60.87H258.12l12.19-35.06h14.08L296.9,60.87H283.42l-1.16-4.37h-9.63ZM280,48.18,278.54,42c-.38-1.48-.61-3-.84-4.51h-.47l-2.32,10.7Z"/><path class="cls-2" d="M71.54,67.45H83.32v22h9.89v10.4H71.54Z"/><path class="cls-2" d="M100.82,99.87H88.35L99.61,67.45h13l11.57,32.42H111.74l-1.07-4h-8.91Zm7.78-11.74-1.37-5.72c-.35-1.37-.56-2.79-.78-4.17H106l-2.15,9.89Z"/><path class="cls-2" d="M155.77,80.78c-.08,5.29-.08,9.72-3.91,13.85a19,19,0,0,1-13.76,5.76c-9.89,0-17.89-6.11-17.89-16.51,0-10.58,7.78-16.95,18-16.95,5.63,0,13.37,2.8,15.91,8.35l-11,4a4.94,4.94,0,0,0-4.47-2.5c-4.22,0-6.54,3.62-6.54,7.53,0,3.57,2.24,6.92,6.06,6.92,1.85,0,4.22-.86,4.78-2.84h-5.34V80.78Z"/><path class="cls-2" d="M157.06,67.45h21.8v8.86h-9.93V79.4H178v8.43h-9.07V91h10.28v8.86H157.06Z"/><path class="cls-2" d="M181.49,67.45h14.23c7.31,0,13.5,3.1,13.5,11.27,0,4.9-1.89,7-6.28,8.42v.26a8.3,8.3,0,0,1,2,1.94L212,99.87H198.38l-5.16-10.4H193v10.4H181.49ZM193,81.81h.82c1.93,0,3.87-.3,3.87-2.71s-1.77-2.79-3.79-2.79H193Z"/><path class="cls-2" d="M212.4,67.45h11.78V99.87H212.4Z"/><path class="cls-2" d="M226.89,67.45H238.2l10.58,18h.34a48.77,48.77,0,0,1-1-8.25V67.45H259.4V99.87H248.14l-10.37-17h-.34a37.84,37.84,0,0,1,.73,6.5V99.87H226.89Z"/><path class="cls-2" d="M261.81,67.45h11.31l10.58,18H284a48.78,48.78,0,0,1-1-8.25V67.45h11.27V99.87H283.05l-10.36-17h-.35a37.87,37.87,0,0,1,.74,6.5V99.87H261.81Z"/></g></g></svg>